<svg width="181" height="175" viewBox="0 0 181 175" fill="none" xmlns="http://www.w3.org/2000/svg">
<path d="M114.317 60.8302C103.084 52.3314 89.6057 44.5688 75.3046 43.519C61.7406 42.5144 50.2412 49.395 43.6941 61.2369C37.7328 72.0137 35.5134 84.8659 34.6459 97.0603C33.6776 110.692 34.4271 124.841 37.9715 138.115C40.4975 147.507 44.518 157.57 53.6433 162.246C61.6073 166.342 70.9579 165.108 79.1356 162.496C89.1069 159.324 98.3297 153.943 106.931 148.063C115.018 142.574 123.323 136.506 130.04 129.38C138.686 120.214 143.603 108.111 140.392 95.4638C136.693 80.8933 125.432 70.9075 115.179 60.7393C113.799 59.375 111.441 61.2858 112.831 62.6725C121.548 71.3052 131.084 79.5719 135.823 91.2414C139.92 101.297 138.82 111.962 132.864 120.969C127.419 129.16 119.164 135.34 111.358 141.158C103.743 146.811 95.7001 152.039 87.0862 156.051C79.2909 159.696 70.3322 162.817 61.5799 161.589C52.5365 160.304 46.8483 153.637 43.5451 145.476C38.9539 134.195 37.4927 121.543 37.3111 109.496C37.1248 97.0231 38.3338 84.1674 42.2515 72.3229C46.6032 59.1333 55.687 47.4426 70.4361 46.5252C85.6976 45.5662 100.752 54.4182 112.534 63.3141C114.127 64.5027 115.888 62.0287 114.317 60.8302Z" fill="#D3CBCF"/>
<path d="M115.201 60.7294C112.499 58.1891 110.036 55.1137 109.447 51.3611C108.963 48.258 109.89 45.1661 111.325 42.4365C114.687 36.0609 120.267 31.0233 124.958 25.6601C127.405 22.8794 129.771 19.9748 131.352 16.5639C130.395 16.3226 129.415 16.0911 128.436 15.8597C125.366 30.9663 127.556 50.6552 112.691 59.924C111.052 60.9509 112.98 63.3021 114.628 62.2976C130.319 52.4992 128.21 32.1041 131.454 16.1972C131.819 14.4009 129.205 14.0167 128.527 15.4707C125.474 22.0027 119.46 27.0202 114.845 32.376C110.39 37.5535 105.581 43.9599 106.366 51.2392C106.858 55.7847 109.638 59.6286 112.863 62.6849C114.277 64.0072 116.635 62.0963 115.201 60.7294Z" fill="#D3CBCF"/>
<path d="M116.767 61.7968C125.235 54.3705 136.437 48.6667 147.945 51.3669C147.586 50.5636 147.227 49.7603 146.868 48.957C143.634 54.0168 138.151 57.4313 132.665 59.5894C127.178 61.7475 120.62 62.9926 114.914 60.8582C113.072 60.1824 112.002 63.0164 113.844 63.6922C120.183 66.0527 127.325 64.8677 133.481 62.5442C139.583 60.2182 145.768 56.3558 149.329 50.7214C149.979 49.6812 149.382 48.5828 148.252 48.3115C136.001 45.4347 123.827 51.5192 114.82 59.401C113.365 60.7204 115.302 63.094 116.767 61.7968Z" fill="#D3CBCF"/>
<path d="M113.976 60.6618C97.1211 53.3643 90.7211 32.6923 99.0627 16.7285C98.1985 16.8739 97.3343 17.0193 96.4822 17.1324C99.2908 20.2676 102.416 23.1008 105.202 26.2459C107.854 29.2099 110.63 32.6276 110.955 36.7392C111.115 38.7021 114.09 38.2292 113.961 36.2787C113.279 27.5077 104.219 21.1968 98.8205 15.1769C97.9877 14.2641 96.7694 14.5678 96.24 15.5808C87.1202 33.0705 94.6756 55.5551 112.919 63.4636C114.712 64.2683 115.781 61.4342 113.976 60.6618Z" fill="#D3CBCF"/>
<path d="M69.616 53.7185C67.9263 55.7589 67.398 58.3779 66.7976 60.8951C66.7181 61.2519 66.9154 61.7527 67.1436 62.0255C67.3717 62.2983 67.7747 62.5466 68.1543 62.5643C68.566 62.5944 68.9821 62.5155 69.2763 62.2234C69.6025 61.9437 69.7241 61.6216 69.8057 61.2103C69.7914 61.297 69.7019 61.6315 69.8057 61.2103C69.82 61.1236 69.8565 61.027 69.8708 60.9403C69.9094 60.7891 69.9381 60.6157 69.9767 60.4645C70.054 60.1623 70.1213 59.8377 70.2207 59.5255C70.3731 58.9755 70.5254 58.4255 70.7099 57.8879C70.785 57.6402 70.8922 57.4049 70.9994 57.1695C71.058 57.063 71.1066 56.9342 71.1652 56.8277C71.1895 56.7633 71.2138 56.6989 71.2481 56.6568C71.3774 56.4116 71.0601 57.0085 71.1895 56.7633C71.4581 56.2952 71.7466 55.8717 72.0673 55.4606C72.5694 54.8614 72.3639 53.7485 71.6963 53.3241C70.9966 52.8872 70.1424 53.0549 69.616 53.7185Z" fill="#D3CBCF"/>
<path d="M95.234 68.5041C94.8941 69.9411 94.3073 71.3011 93.6464 72.6139C93.5999 72.6882 93.5756 72.7526 93.5292 72.8269C93.6342 72.6461 93.5878 72.7204 93.517 72.8591C93.4341 73.03 93.3413 73.1786 93.2584 73.3495C93.0826 73.669 92.8848 73.9984 92.699 74.2956C92.3033 74.9544 91.8854 75.6231 91.4675 76.2918C91.0496 76.9606 91.0967 77.9568 91.8385 78.4284C92.484 78.8627 93.4966 78.8117 93.9609 78.0687C95.6103 75.4038 97.3383 72.6769 98.081 69.5874C98.1848 69.1662 98.22 68.8292 98.0404 68.4275C97.8908 68.0928 97.5464 67.7381 97.2033 67.6238C96.4949 67.405 95.4293 67.6939 95.234 68.5041Z" fill="#D3CBCF"/>
<path d="M122.918 91.9501C122.895 92.2549 122.872 92.5597 122.849 92.8645C122.833 93.0057 122.816 93.1469 122.777 93.2981C122.763 93.3848 122.739 93.4492 122.725 93.5359C122.722 93.5904 122.647 93.8382 122.712 93.5681C122.777 93.2981 122.702 93.5458 122.7 93.6003C122.686 93.6871 122.662 93.7515 122.647 93.8382C122.609 93.9893 122.548 94.1503 122.509 94.3015C122.422 94.5814 122.303 94.849 122.183 95.1165C122.113 95.2552 122.064 95.384 121.993 95.5227C121.876 95.7357 121.993 95.5227 122.03 95.4261C121.983 95.5004 121.959 95.5648 121.912 95.6391C121.761 95.8942 121.587 96.1592 121.414 96.4242C121.24 96.6892 121.035 96.9418 120.851 97.1845C120.726 97.3207 120.623 97.4469 120.498 97.5831C120.408 97.6772 120.206 97.8207 120.52 97.5732C120.442 97.6351 120.395 97.7094 120.317 97.7713C120.023 98.0634 119.815 98.3705 119.787 98.7843C119.74 99.1535 119.873 99.6295 120.134 99.9147C120.644 100.463 121.666 100.729 122.276 100.135C123.387 98.996 124.316 97.7504 124.994 96.2964C125.576 95.0455 125.892 93.6728 125.946 92.3099C125.989 91.5144 125.457 90.6812 124.602 90.6085C123.81 90.5607 122.963 91.1001 122.918 91.9501Z" fill="#D3CBCF"/>
<path d="M74.3051 78.0467C73.2332 80.3999 72.1469 82.8399 72.0302 85.489C71.9876 86.2844 72.5193 87.1176 73.3748 87.1903C74.144 87.2481 75.0135 86.6988 75.0583 85.8488C75.0723 85.2268 75.1726 84.6197 75.295 84.0028C75.2972 83.9482 75.3215 83.8838 75.3458 83.8194C75.2863 84.2208 75.3072 83.9706 75.3215 83.8838C75.3602 83.7327 75.3988 83.5816 75.4374 83.4304C75.5147 83.1282 75.6241 82.8383 75.7113 82.5584C76.1167 81.3866 76.6284 80.2744 77.14 79.1622C77.4837 78.4463 77.0028 77.4298 76.2623 77.1986C75.4376 76.8979 74.6731 77.2664 74.3051 78.0467Z" fill="#D3CBCF"/>
<path d="M97.1586 94.3089C96.6234 96.5561 95.5823 98.6814 94.6075 100.777C94.2738 101.515 94.7448 102.509 95.4853 102.741C96.3 103.019 97.0866 102.641 97.4325 101.87C98.3851 99.7845 99.4262 97.6592 99.9836 95.4021C100.087 94.9809 100.123 94.6439 99.943 94.2423C99.7934 93.9076 99.449 93.5528 99.1058 93.4385C98.7306 93.3117 98.2968 93.2915 97.9527 93.4721C97.6208 93.6204 97.2502 93.9199 97.1586 94.3089Z" fill="#D3CBCF"/>
<path d="M53.7564 88.1428C52.8039 92.1293 51.3999 95.9964 50.4474 99.9829C50.2642 100.761 50.4883 101.678 51.3252 101.946C52.0214 102.197 53.087 101.909 53.2723 101.076C54.2248 97.0896 55.6289 93.2225 56.5813 89.236C56.7645 88.458 56.5404 87.5408 55.7036 87.2724C55.0173 87.0437 53.9518 87.3326 53.7564 88.1428Z" fill="#D3CBCF"/>
<path d="M76.5181 104.794C76.0436 106.88 76.0007 109.041 75.5262 111.127C75.4467 111.484 75.6441 111.985 75.8722 112.258C76.1004 112.53 76.5034 112.779 76.883 112.796C77.2947 112.826 77.7107 112.748 78.0049 112.455C78.3312 112.176 78.4527 111.854 78.5343 111.442C79.0089 109.356 79.0517 107.195 79.5262 105.109C79.6057 104.752 79.4084 104.252 79.1802 103.979C78.9521 103.706 78.5491 103.458 78.1695 103.44C77.7578 103.41 77.3417 103.489 77.0475 103.781C76.7312 104.083 76.5997 104.383 76.5181 104.794Z" fill="#D3CBCF"/>
<path d="M107.792 117.801C106.155 120.433 104.74 123.207 102.88 125.699C102.398 126.343 102.574 127.388 103.251 127.835C103.961 128.294 104.867 128.184 105.374 127.475C107.224 124.962 108.648 122.21 110.286 119.577C110.704 118.909 110.656 117.912 109.915 117.441C109.257 117.039 108.244 117.09 107.792 117.801Z" fill="#D3CBCF"/>
<path d="M61.5398 116.898C60.8986 119.62 59.7858 122.179 59.1225 124.912C59.0187 125.333 58.9835 125.67 59.1631 126.072C59.3127 126.407 59.6571 126.761 60.0003 126.876C60.6965 127.127 61.7621 126.838 61.9474 126.005C62.5886 123.282 63.7014 120.723 64.3647 117.991C64.4685 117.569 64.5037 117.232 64.3241 116.831C64.1745 116.496 63.8301 116.141 63.487 116.027C62.8007 115.798 61.7352 116.087 61.5398 116.898Z" fill="#D3CBCF"/>
<path d="M86.9221 126.701C85.733 129.268 84.5981 131.836 83.5474 134.475C83.2679 135.215 83.6525 136.195 84.4252 136.438C85.2077 136.704 86.0585 136.351 86.3723 135.568C87.4009 132.939 88.5579 130.361 89.7471 127.795C90.0808 127.056 89.6098 126.062 88.8693 125.831C88.0546 125.553 87.268 125.931 86.9221 126.701Z" fill="#D3CBCF"/>
<path d="M63.0867 142.095C62.039 144.384 61.0035 146.64 59.9459 148.907C59.6122 149.645 60.0832 150.639 60.8237 150.87C61.6384 151.149 62.425 150.77 62.7709 150C63.8285 147.734 64.854 145.455 65.9116 143.188C66.2453 142.45 65.7744 141.456 65.0338 141.225C64.2413 140.936 63.4547 141.315 63.0867 142.095Z" fill="#D3CBCF"/>
<path d="M48.55 133.332C48.536 133.954 48.4357 134.561 48.3133 135.178C48.3111 135.233 48.2868 135.297 48.2625 135.362C48.322 134.96 48.3011 135.211 48.2868 135.297C48.2482 135.448 48.2095 135.6 48.1709 135.751C48.0936 136.053 47.9843 136.343 47.897 136.623C47.4916 137.795 46.98 138.907 46.4683 140.019C46.1346 140.757 46.6055 141.751 47.346 141.983C48.1607 142.261 48.9473 141.883 49.2932 141.112C50.3652 138.759 51.4514 136.319 51.5681 133.67C51.6108 132.874 51.079 132.041 50.2235 131.969C49.4422 131.943 48.5727 132.492 48.55 133.332Z" fill="#D3CBCF"/>
<path d="M85.3273 144.04C85.1319 144.85 84.8502 145.645 84.4401 146.391C84.4987 146.284 84.5473 146.155 84.628 146.039C84.1351 146.955 83.5037 147.8 82.8203 148.587C82.5925 148.85 82.4965 149.348 82.5477 149.7C82.6088 150.074 82.8525 150.5 83.1592 150.711C83.488 150.912 83.8732 151.062 84.2672 150.993C84.6832 150.914 84.9852 150.698 85.2694 150.384C86.5699 148.839 87.6599 147.12 88.1301 145.143C88.2338 144.722 88.269 144.385 88.0895 143.983C87.9399 143.648 87.5955 143.294 87.2523 143.179C86.8771 143.052 86.4432 143.032 86.0992 143.213C85.7894 143.351 85.4189 143.651 85.3273 144.04Z" fill="#D3CBCF"/>
<path d="M128.309 109.593C127.12 112.159 125.632 114.591 124.934 117.366C124.831 117.787 124.796 118.124 124.975 118.526C125.125 118.861 125.469 119.215 125.812 119.33C126.508 119.581 127.574 119.292 127.759 118.459C128.425 115.672 129.945 113.252 131.134 110.686C131.478 109.97 130.997 108.953 130.256 108.722C129.432 108.422 128.677 108.812 128.309 109.593Z" fill="#D3CBCF"/>
<path d="M51.2274 67.4001C50.113 69.1833 49.229 71.1848 48.7224 73.2586C48.6186 73.6798 48.5834 74.0168 48.763 74.4184C48.9126 74.7531 49.257 75.1078 49.6001 75.2222C49.9754 75.3489 50.4092 75.3692 50.7533 75.1886C51.0752 75.0179 51.4457 74.7184 51.5473 74.3518C51.938 72.7314 52.5756 71.1881 53.3615 69.7391C53.3029 69.8456 53.2543 69.9745 53.1736 70.0908C53.3272 69.7812 53.4908 69.4939 53.6765 69.1967C53.8965 68.8574 53.9981 68.4907 53.9491 68.0843C53.888 67.71 53.6443 67.2835 53.3376 67.0726C52.6921 66.6382 51.6796 66.6893 51.2274 67.4001Z" fill="#D3CBCF"/>
<path d="M114.576 59.5095C116.24 54.8571 117.819 50.1352 119.9 45.6443C120.234 44.9061 119.751 43.9441 119.023 43.6807C118.22 43.3701 117.409 43.8129 117.075 44.5511C115.004 49.0644 113.437 53.7541 111.761 58.4387C111.492 59.2017 111.869 60.1041 112.639 60.4023C113.4 60.6781 114.317 60.2949 114.576 59.5095Z" fill="#D3CBCF"/>
</svg>
