<svg width="452" height="370" viewBox="0 0 452 370" fill="none" xmlns="http://www.w3.org/2000/svg">
<path d="M42.3718 191.265C68.8533 202.94 106.435 206.314 129.52 185.657C130.151 185.097 130.047 184.112 129.529 183.505C123.931 177.079 115.174 173.648 107.351 170.785C98.0075 167.351 88.8212 165.101 78.8099 165.009C69.5814 164.92 61.4139 166.733 53.1791 170.944C49.0513 173.044 45.1086 175.502 41.2378 178.031C39.5168 179.166 37.7836 180.323 36.0715 181.492C34.8696 182.311 33.2408 182.996 32.5007 184.278C32.064 185.034 32.3826 185.89 33.0522 186.333C35.9765 188.358 39.2866 189.568 42.3718 191.265C44.0782 192.195 45.6158 189.58 43.8883 188.639C40.8031 186.942 37.493 185.731 34.5776 183.74C34.7644 184.436 34.9512 185.132 35.1291 185.795C35.6265 184.933 38.0641 183.819 39.0273 183.171C40.6367 182.082 42.2672 181.007 43.8855 179.952C47.3818 177.683 50.9501 175.485 54.6736 173.6C62.6155 169.556 70.445 167.94 79.3451 168.064C88.6367 168.189 97.1129 170.309 105.79 173.441C113.339 176.147 121.952 179.438 127.367 185.647C127.367 184.918 127.376 184.223 127.376 183.494C116.254 193.435 101.177 197.115 86.5697 197.311C72.0165 197.51 57.2087 194.508 43.8673 188.627C42.1181 187.869 40.5805 190.483 42.3718 191.265Z" fill="#DBDBDB"/>
<path d="M37.6628 186.165C53.2707 183.605 69.1179 182.864 84.9158 183.131C91.7172 183.248 98.4839 183.036 105.286 182.957C112.393 182.885 119.736 183.034 126.479 185.582C128.298 186.268 129.072 183.325 127.253 182.639C120.753 180.203 113.649 179.884 106.795 179.905C99.4966 179.922 92.2358 180.213 84.9345 180.088C68.8536 179.826 52.7954 180.641 36.9133 183.239C34.9577 183.567 35.7615 186.496 37.6628 186.165Z" fill="#DBDBDB"/>
<path d="M118.126 185.775C101.833 189.229 85.2687 193.057 68.498 191.416C66.5627 191.223 66.5771 194.258 68.5124 194.45C85.5209 196.117 102.372 192.229 118.896 188.713C120.813 188.307 120.03 185.389 118.126 185.775Z" fill="#DBDBDB"/>
<path d="M94.0145 173.927C84.4528 172.862 75.0682 174.112 65.6286 175.554C63.6973 175.84 64.5011 178.77 66.4113 178.472C75.631 177.07 84.7382 175.912 94.041 176.941C95.9731 177.188 95.9376 174.141 94.0145 173.927Z" fill="#DBDBDB"/>
<path d="M64.0542 186.973C59.9701 186.52 55.9362 185.592 51.8084 185.507C50.9835 185.479 50.2969 186.231 50.3025 187.047C50.296 187.883 51.0068 188.546 51.8438 188.553C55.9716 188.639 60.0056 189.567 64.0897 190.019C64.9113 190.102 65.6044 189.241 65.5956 188.479C65.5722 187.597 64.8637 187.076 64.0542 186.973Z" fill="#DBDBDB"/>
<path d="M15.689 163.672C44.6887 162.147 79.5459 148.147 90.8858 119.279C91.2174 118.462 90.4798 117.7 89.8005 117.42C81.7837 114.164 72.1985 115.13 63.8507 116.138C54.6262 117.257 46.0398 119.164 37.5891 123.166C29.1053 127.178 22.348 132.326 16.6889 139.846C13.7821 143.715 11.2506 147.857 8.82417 152.06C7.74442 153.93 6.67357 155.833 5.61485 157.716C4.87155 159.052 3.72469 160.407 3.64294 161.957C3.60732 162.552 4.137 163.335 4.78399 163.428C8.42812 163.963 12.0311 163.549 15.689 163.672C17.6429 163.736 17.6285 160.701 15.6746 160.638C12.2997 160.511 8.90138 160.958 5.54596 160.506C5.92927 161.007 6.30371 161.476 6.68702 161.977C6.7453 161.002 8.54646 158.708 9.14093 157.678C10.139 155.901 11.1371 154.124 12.1772 152.371C14.382 148.6 16.6919 144.891 19.3261 141.397C24.7369 134.21 31.4294 129.416 39.5299 125.632C47.6183 121.868 55.8998 120.149 64.7054 119.125C72.5801 118.208 81.5175 117.345 89.0353 120.396C88.6706 119.765 88.3148 119.168 87.9501 118.537C82.4872 132.418 70.6298 142.467 57.6752 149.22C44.7658 155.944 30.206 159.894 15.6956 160.65C13.732 160.749 13.7464 163.783 15.689 163.672Z" fill="#DBDBDB"/>
<path d="M8.8512 161.434C22.0195 151.833 36.2019 143.827 50.8711 136.775C56.9173 133.877 62.7574 130.609 68.705 127.543C74.6857 124.467 81.0215 121.457 87.7753 120.734C89.6912 120.523 89.6978 117.501 87.7609 117.699C74.4943 119.118 63.1344 127.577 51.3799 133.174C36.0112 140.467 21.105 148.756 7.34465 158.799C5.78616 159.944 7.29271 162.579 8.8512 161.434Z" fill="#DBDBDB"/>
<path d="M80.6768 124.676C67.8126 135.012 54.8407 145.875 39.2965 151.918C37.493 152.614 38.2636 155.552 40.0793 154.835C56.1572 148.596 69.5003 137.528 82.8207 126.839C84.3404 125.615 82.1844 123.473 80.6768 124.676Z" fill="#DBDBDB"/>
<path d="M54.1641 124.807C45.132 128.166 37.3233 133.436 29.5196 138.989C27.9401 140.122 29.4466 142.757 31.0261 141.624C38.5913 136.241 46.1799 131.012 54.9468 127.725C56.7713 127.041 55.9886 124.123 54.1641 124.807Z" fill="#DBDBDB"/>
<path d="M33.3128 149.948C29.341 151.438 25.2116 152.472 21.3708 154.317C20.6648 154.666 20.3954 155.715 20.79 156.391C21.2566 157.137 22.105 157.318 22.8652 156.973C23.8066 156.507 24.5426 156.204 25.4443 155.856C26.4124 155.49 27.3894 155.158 28.3663 154.825C30.275 154.19 32.1804 153.609 34.0713 152.908C34.8161 152.637 35.4154 151.891 35.1389 151.059C34.9553 150.308 34.124 149.66 33.3128 149.948Z" fill="#DBDBDB"/>
<path d="M324.848 30.0008C341.98 55.8137 355.276 84.3914 368.497 112.374C374.25 124.539 379.584 136.984 383.758 149.801C387.623 161.735 390.914 174.498 390.365 187.124C390.114 193.139 389.262 202.177 382.704 204.786C377.799 206.733 371.763 204.758 366.965 203.368C358.494 200.884 344.551 194.676 338.682 204.89C335.502 210.443 336.181 217.248 337.399 223.29C339.065 231.452 341.874 239.333 344.033 247.327C346.117 255.088 348.305 263.91 346.141 271.889C343.932 279.979 335.983 285.453 327.683 285.516C318.127 285.571 309.445 279.033 302.076 273.675C295.135 268.595 288.089 262.577 279.757 260C271.239 257.385 263.79 261.073 257.571 266.843C249.346 274.437 243.337 284.139 236.602 292.996C229.829 301.918 222.655 309.334 212.428 314.234C204.551 318.006 191.387 322.61 184.479 314.686C177.002 306.092 180.671 291.26 183.473 281.523C187.061 269.043 192.268 257.054 197.093 245.038C199.01 240.248 200.881 235.449 202.501 230.576C202.935 229.237 201.53 228.039 200.313 228.086C191.687 228.447 182.855 227.172 174.496 225.096C166.323 223.058 156.177 219.878 150.831 212.845C144.545 204.585 151.4 194.761 158.159 189.316C166.97 182.177 177.811 177.835 187.805 172.648C197.957 167.395 209.399 160.877 213.649 149.568C214.056 148.489 213.775 147.346 212.659 146.761C201.282 140.653 188.69 136.165 178.51 128.048C174.648 124.983 170.124 120.626 170.488 115.261C171.007 107.656 179.987 102.098 185.866 98.8941C195.972 93.3906 207.224 90.7497 218.244 87.8207C226.002 85.7407 238.075 84.6888 240.524 75.1476C241.079 72.9623 240.231 71.8753 238.928 70.2866C236.683 67.4714 237.617 63.7424 237.677 60.2744C237.683 58.415 237.279 55.4588 238.337 53.7843C239.487 51.8867 242.887 51.1864 244.829 50.5339C256.972 46.3303 269.581 43.7904 281.995 40.414C288.87 38.5206 295.97 37.3244 302.911 35.589C310.307 33.751 317.666 31.7364 325.025 29.7217C327.608 29.0036 326.291 25.0441 323.69 25.7343C310.477 29.3625 297.218 32.7397 283.828 35.68C277.463 37.0709 271.183 39.0102 264.864 40.5312C258.546 42.0521 252.218 43.6196 246.049 45.7261C241.543 47.2455 235.15 48.5342 233.866 53.9091C233.229 56.6338 233.521 59.6645 233.451 62.4537C233.4 65.8752 232.764 69.325 234.971 72.2053C235.371 72.7442 236.469 73.4219 236.488 74.0541C236.613 76.5921 232.007 79.7108 230.158 80.3818C224.863 82.3481 218.934 83.3667 213.452 84.8126C201.726 87.8909 189.861 91.1832 179.535 97.8026C173.972 101.359 167.715 106.71 166.452 113.564C165.493 118.762 167.953 123.529 171.389 127.282C181.695 138.541 197.634 143.576 210.769 150.565C210.423 149.627 210.124 148.697 209.779 147.759C205.409 159.43 192.674 165.522 182.234 170.765C171.571 176.158 159.616 181.003 151.281 189.88C145.425 196.133 141.442 205.368 146.101 213.425C150.63 221.287 160.312 225.22 168.551 227.779C178.696 230.959 189.797 232.735 200.449 232.27C199.723 231.424 199.015 230.607 198.261 229.78C194.272 241.842 188.888 253.385 184.426 265.28C180.342 276.236 176 288.01 175.971 299.845C175.957 309.533 179.328 320.064 189.751 322.575C199.412 324.909 210.048 320.502 218.324 315.818C228.28 310.213 235.202 301.755 241.909 292.675C248.551 283.679 254.94 273.037 264.309 266.614C272.926 260.694 281.26 264.359 289.15 269.651C297.356 275.176 304.886 281.919 313.862 286.244C322.131 290.235 331.12 291.082 339.331 286.482C346.287 282.599 350.172 275.809 350.811 267.961C352.217 250.527 342.249 234.768 340.523 217.774C340.014 212.912 340.431 205.455 346.145 203.814C351.19 202.378 357.356 204.91 362.117 206.366C372.505 209.546 386.388 213.494 391.807 200.678C395.772 191.294 394.695 179.794 392.98 170.052C390.627 156.582 386.184 143.542 381.026 130.939C376.026 118.634 370.236 106.655 364.233 94.7779C356.663 79.7136 349.558 64.3792 341.394 49.6315C337.247 42.1601 332.849 34.8563 328.099 27.748C326.822 25.4155 323.339 27.7429 324.848 30.0008Z" fill="#DBDBDB"/>
<path d="M322.648 25.624C314.429 62.4113 296.688 96.4084 280.498 130.135C272.019 147.779 263.8 165.572 255.032 183.086C245.783 201.568 236.356 219.966 227.413 238.606C222.52 248.772 217.776 259.041 213.302 269.411C211.069 274.573 208.902 279.772 206.827 284.99C204.669 290.384 203.227 295.945 201.116 301.348C200.162 303.841 203.901 305.697 204.883 303.186C206.587 298.74 207.723 294.109 209.446 289.692C211.307 284.939 213.234 280.224 215.235 275.499C219.236 266.049 223.461 256.693 227.835 247.438C236.759 228.529 246.259 209.879 255.62 191.202C264.74 173.009 273.414 154.63 282.18 136.269C290.372 119.099 298.834 102.031 306.523 84.5922C314.769 65.8138 322.242 46.5433 326.711 26.4572C327.358 23.8069 323.239 23.011 322.648 25.624Z" fill="#DBDBDB"/>
<path d="M245.346 265.859C244.368 258.124 243.595 250.334 243.016 242.534C242.353 233.702 241.745 224.712 242.457 215.888C242.622 213.843 240.352 212.497 238.82 214.125C228.667 224.863 216.913 233.929 206.946 244.825C205.127 246.807 208.3 249.565 210.119 247.583C220.086 236.687 231.841 227.622 241.994 216.884C240.785 216.28 239.548 215.696 238.357 215.12C237.608 224.13 238.123 233.222 238.805 242.203C239.393 250.198 240.176 258.184 241.182 266.142C241.502 268.791 245.685 268.536 245.346 265.859Z" fill="#DBDBDB"/>
<path d="M296.407 249.275C278.319 223.779 272.903 193.484 268.128 163.244C267.95 162.073 266.711 160.763 265.383 161.368C245.208 170.86 224.622 179.375 204.382 188.709C201.939 189.818 203.246 193.824 205.717 192.696C225.957 183.363 246.543 174.847 266.718 165.356C265.806 164.715 264.885 164.121 263.973 163.48C268.879 194.398 274.427 225.493 292.953 251.584C294.471 253.795 297.972 251.496 296.407 249.275Z" fill="#DBDBDB"/>
<path d="M324.521 188.827C308.026 165.896 300.689 137.611 293.669 110.645C293.332 109.297 291.584 108.853 290.526 109.56C272.167 121.588 250.051 126.126 231.701 138.108C229.454 139.569 231.755 143.072 234.03 141.592C252.361 129.583 274.495 125.073 292.854 113.045C291.813 112.692 290.753 112.312 289.711 111.96C296.852 139.287 304.339 167.917 321.039 191.155C322.613 193.329 326.095 191.001 324.521 188.827Z" fill="#DBDBDB"/>
<path d="M344.23 140.045C335.298 114.56 323.068 90.4718 313.142 65.3685C312.759 64.374 311.568 63.5569 310.481 64.0413C291.457 72.3604 269.807 71.3844 251.129 80.7631C248.714 81.9739 251.07 85.4397 253.457 84.2476C271.737 75.0552 293.136 76.1987 311.798 68.0008C310.895 67.5553 310.04 67.1191 309.137 66.6736C319.073 91.7304 331.294 115.865 340.226 141.35C341.122 143.897 345.108 142.564 344.23 140.045Z" fill="#DBDBDB"/>
</svg>
